<svg width="48" height="28" viewBox="0 0 48 28" fill="none" xmlns="http://www.w3.org/2000/svg">
<path d="M22.104 27.036L18 18.036C13.176 18.252 8.892 20.16 3.996 20.268L0.972 27.072L0.468 26.856L11.124 2.88L10.98 2.484L11.448 2.16L13.752 0.467998L24.876 25.02L22.104 27.036ZM4.248 19.692C8.964 19.548 13.104 17.748 17.748 17.496L11.448 3.564L4.248 19.692ZM38.5186 26.46C40.8226 26.28 42.9106 25.02 44.1706 23.076L44.7106 24.192C43.0186 25.884 39.7426 27.036 37.4026 27.036C32.1106 27.036 27.7906 24.012 27.3226 18C27.2866 17.64 27.2866 17.28 27.2866 16.884C27.2866 10.116 31.7866 6.732 37.4026 6.732C37.6906 6.732 38.0146 6.768 38.3026 6.768C38.4106 6.768 38.5186 6.804 38.6266 6.804C38.8066 6.84 38.9866 6.84 39.1666 6.876C39.3106 6.876 39.4186 6.912 39.5626 6.912C39.7066 6.948 39.8506 6.984 39.9946 7.02C40.1386 7.056 40.2826 7.056 40.4266 7.092C40.5346 7.128 40.6786 7.164 40.8226 7.2C40.9666 7.236 41.1106 7.308 41.2186 7.344C41.3626 7.38 41.4706 7.416 41.6146 7.488C41.7226 7.524 41.8666 7.596 42.0106 7.632C42.1186 7.704 42.2266 7.74 42.3346 7.776C42.4786 7.848 42.6226 7.92 42.7306 7.992C42.8386 8.064 42.9466 8.1 43.0546 8.172C43.1986 8.244 43.3066 8.316 43.4146 8.388C43.4866 8.424 43.5586 8.46 43.5946 8.496C45.6466 9.936 47.0146 12.168 47.3386 14.616H44.1706C39.4186 14.616 35.3506 16.704 30.6346 16.848V16.884C30.6346 23.652 35.1706 26.46 38.5186 26.46ZM36.2866 7.308C31.9666 7.308 30.7426 11.952 30.6706 16.308C35.2426 16.128 39.2386 14.148 43.8466 14.076C43.5946 12.888 43.1266 11.772 42.4786 10.764C42.2986 10.476 42.0826 10.26 41.9026 10.008C41.8666 9.972 41.8306 9.9 41.7586 9.864C41.6146 9.684 41.4346 9.504 41.2546 9.324C41.1826 9.288 41.1106 9.216 41.0746 9.18C40.8586 9 40.6426 8.82 40.3906 8.64C40.1386 8.46 39.8866 8.316 39.6346 8.208C39.5986 8.172 39.5266 8.136 39.4546 8.1C39.2746 7.992 39.0586 7.92 38.8426 7.812C38.8066 7.812 38.7346 7.776 38.6986 7.776C38.4466 7.668 38.1946 7.596 37.9426 7.524C37.9066 7.524 37.8346 7.488 37.7986 7.488C37.5826 7.452 37.4026 7.416 37.1866 7.38C37.1146 7.38 37.0426 7.344 37.0066 7.344C36.7546 7.308 36.5026 7.308 36.2866 7.308Z" fill="#6F15C9"/>
</svg>
