<svg width="32" height="28" viewBox="0 0 32 28" fill="none" xmlns="http://www.w3.org/2000/svg">
<path d="M22.104 27.036L18 18.036C13.176 18.252 8.892 20.16 3.996 20.268L0.972 27.072L0.468 26.856L11.124 2.88L10.98 2.484L11.448 2.16L13.752 0.467998L24.876 25.02L22.104 27.036ZM4.248 19.692C8.964 19.548 13.104 17.748 17.748 17.496L11.448 3.564L4.248 19.692ZM28.1506 27.036V7.884L31.4986 7.308V26.46L28.1506 27.036ZM29.8066 5.616C28.9066 5.616 28.1506 4.86 28.1506 3.924C28.1506 2.988 28.9066 2.232 29.8066 2.232C30.7426 2.232 31.4986 2.988 31.4986 3.924C31.4986 4.86 30.7426 5.616 29.8066 5.616Z" fill="#6F15C9"/>
</svg>
