<svg width="30" height="28" viewBox="0 0 30 28" fill="none" xmlns="http://www.w3.org/2000/svg">
<path d="M0.844 1.116L4.192 0.539999V26.46L0.844 27V1.116ZM25.6823 1.116L29.0663 0.539999V26.46L25.6823 27.036V24.84C23.7383 26.316 21.3623 27.108 18.9143 27.036C13.2983 27.036 8.79831 23.652 8.79831 16.884C8.79831 10.116 13.2983 6.732 18.9143 6.732C21.3623 6.66 23.7383 7.452 25.6823 8.928V1.116ZM20.0303 26.46C22.2983 26.352 24.3863 25.2 25.6823 23.364V10.98C23.6303 8.784 20.7863 7.452 17.7983 7.308C13.2983 7.308 12.1463 12.384 12.1463 16.884C12.1463 23.652 16.6463 26.46 20.0303 26.46Z" fill="#6F15C9"/>
</svg>
