<svg width="41" height="27" viewBox="0 0 41 27" fill="none" xmlns="http://www.w3.org/2000/svg">
<path d="M12.652 0.539999C17.044 0.539999 21.652 2.808 21.652 7.308C21.652 11.808 17.152 14.076 13.228 14.076H4.192V26.46L0.844 27V1.116L4.192 0.539999H12.652ZM13.228 13.5C17.152 13.5 18.268 10.188 18.268 7.308C18.304 5.652 17.62 4.104 16.468 2.916C15.316 1.764 13.732 1.116 12.076 1.116H4.192V13.5H13.228ZM34.0968 6.732C38.0208 6.732 40.2888 9.576 40.2888 13.5L36.9048 14.076C36.9048 11.232 36.3288 7.308 33.5208 7.308C30.7128 7.308 28.4448 10.692 28.4448 14.076V26.46L25.0968 27V7.884L28.4448 7.308V10.656C29.3088 8.28 31.5768 6.732 34.0968 6.732Z" fill="#6F15C9"/>
</svg>
