<svg width="42" height="28" viewBox="0 0 42 28" fill="none" xmlns="http://www.w3.org/2000/svg">
<path d="M12.652 0.539999C17.044 0.539999 21.652 2.808 21.652 7.308C21.652 11.808 17.152 14.076 13.228 14.076H4.192V26.46L0.844 27V1.116L4.192 0.539999H12.652ZM13.228 13.5C17.152 13.5 18.268 10.188 18.268 7.308C18.304 5.652 17.62 4.104 16.468 2.916C15.316 1.764 13.732 1.116 12.076 1.116H4.192V13.5H13.228ZM33.4068 15.768C35.6748 16.2 41.2908 17.46 41.2908 21.384C41.2908 25.884 38.4828 27.036 32.8308 27.036C26.0628 27.036 24.4068 23.652 24.4068 23.652L25.5228 21.96C25.5228 21.96 27.7548 26.46 32.8308 26.46C36.7908 26.46 37.9068 24.192 37.9068 21.384C37.9068 18.576 35.6388 16.884 32.8308 16.308C30.6348 15.876 24.4068 15.768 24.4068 11.808C24.4068 7.884 27.7548 6.732 32.8308 6.732C35.6388 6.732 39.0228 7.344 40.7148 8.496L39.6348 10.8C38.0508 8.64 35.5308 7.344 32.8308 7.308C29.4468 7.308 27.7548 9 27.7548 11.808C27.7548 14.94 30.5988 15.192 33.4068 15.768Z" fill="#6F15C9"/>
</svg>
